<?xml version="1.0" encoding="UTF-8"?><svg xmlns="http://www.w3.org/2000/svg" viewBox="0 0 177.3 81.04"><defs><style>.d{fill:#fff;}.e{fill:#ffeb00;}</style></defs><g id="a"/><g id="b"><g id="c"><g><g><path d="M24.97,80.6h-6.86v-17.57H9.92v17.57H3.05v-17.57H0v-5.45H3.05v-.66c0-7.35,5.27-8.77,8.15-8.77,1.28,0,3.05,.04,4.47,.89v5.36c-1.06-.53-2.26-.44-2.48-.44-2.21,0-3.28,1.24-3.28,3.28v.35h15.05v23.02Zm0-31.43v5.98h-6.86v-5.98h6.86Z"/><path d="M52.28,67.05v13.55h-6.86v-12.35c0-2.88-1.46-5-4.29-5s-4.25,2.13-4.25,5v12.35h-6.86v-23.02h6.86v2.92c1.28-1.95,3.54-3.36,6.82-3.36,4.65,0,8.59,2.88,8.59,9.92Z"/><path d="M81.01,49.16v31.43h-6.86v-2.61h-.13c-.35,.84-2.74,3.05-6.82,3.05-5.22,0-10.98-3.94-10.98-11.95s5.76-11.95,10.98-11.95c4.07,0,6.46,2.21,6.82,3.05h.13v-11.02h6.86Zm-6.68,19.92c0-3.76-2.7-5.84-5.71-5.84s-5.62,2.13-5.62,5.84,2.7,5.84,5.62,5.84,5.71-2.08,5.71-5.84Z"/><path d="M85.97,65.63h13.72v5.76h-13.72v-5.76Z"/><path d="M129.44,69.09c0,8.01-5.76,11.95-10.98,11.95-4.07,0-6.46-2.21-6.82-3.05h-.13v2.61h-6.86v-31.43h6.86v11.02h.13c.35-.84,2.74-3.05,6.82-3.05,5.22,0,10.98,3.94,10.98,11.95Zm-6.73,0c0-3.72-2.74-5.84-5.67-5.84s-5.71,2.08-5.71,5.84,2.7,5.84,5.71,5.84,5.67-2.13,5.67-5.84Z"/><path d="M155.65,57.58v23.02h-6.86v-2.92c-1.28,1.95-3.54,3.36-6.82,3.36-4.65,0-8.59-2.88-8.59-9.92v-13.55h6.86v12.35c0,2.88,1.46,5,4.29,5s4.25-2.13,4.25-5v-12.35h6.86Z"/><path d="M159.37,74.49l5.45-1.46c.35,1.11,1.15,2.66,3.32,2.66,1.24,0,2.39-.62,2.39-1.9,0-.75-.44-1.46-1.95-1.95l-3.1-1.15c-3.81-1.37-5.45-3.85-5.45-6.73,0-4.29,3.85-6.82,8.37-6.82s7.48,2.44,8.28,6.15l-5.36,1.33c-.58-1.77-1.73-2.17-2.66-2.17-1.33,0-1.99,.8-1.99,1.59,0,.75,.44,1.46,1.99,1.95l2.88,1.06c2.48,.84,5.76,2.57,5.76,6.73,0,4.65-3.94,7.26-9.08,7.26-4.65,0-8.15-2.17-8.85-6.55Z"/></g><path class="e" d="M50.02,13.22c0,7.3-13.22,35.17-13.22,35.17,0,0-13.22-27.87-13.22-35.17S29.49,0,36.8,0s13.22,5.92,13.22,13.22Z"/><path class="e" d="M142.61,26.03c0,5.07-9.18,24.41-9.18,24.41,0,0-9.18-19.34-9.18-24.41s4.11-9.18,9.18-9.18,9.18,4.11,9.18,9.18Z"/><path class="e" d="M88.76,20.6c0,4.29-7.77,20.66-7.77,20.66,0,0-7.77-16.37-7.77-20.66s3.48-7.77,7.77-7.77,7.77,3.48,7.77,7.77Z"/><g><circle class="d" cx="133.41" cy="26" r="5.52"/><g><rect x="129.86" y="24.96" width="7.1" height="2.09"/><rect x="129.86" y="24.96" width="7.1" height="2.09" transform="translate(159.42 -107.41) rotate(90)"/></g></g><g><circle class="d" cx="81" cy="20.67" r="5.09"/><g><rect x="77.45" y="19.62" width="7.1" height="2.09"/><rect x="77.45" y="19.62" width="7.1" height="2.09" transform="translate(101.66 -60.33) rotate(90)"/></g></g><g><circle class="d" cx="36.8" cy="13.22" r="9.61"/><g><rect x="33.25" y="12.18" width="7.1" height="2.09"/><rect x="33.25" y="12.18" width="7.1" height="2.09" transform="translate(50.02 -23.57) rotate(90)"/></g></g></g></g></g></svg>